{
  "source": "C:\\Users\\Peter\\Desktop\\stuff\\MIUN\\quantitative_research\\video_compression\\videos\\BVI-HD\\BVI-HD_CDVL_videos\\ORIG\\CalmingWater_1920x1080_60fps.mp4",
  "output": "C:\\Users\\Peter\\Desktop\\stuff\\MIUN\\quantitative_research\\video_compression\\compressed_videos\\BVI-HD\\vp9\\1.5\\CalmingWater_1920x1080_60fps_vp9.webm",
  "codec": "vp9",
  "ok": "Input #0, mov,mp4,m4a,3gp,3g2,mj2, from 'C:\\Users\\Peter\\Desktop\\stuff\\MIUN\\quantitative_research\\video_compression\\videos\\BVI-HD\\BVI-HD_CDVL_videos\\ORIG\\CalmingWater_1920x1080_60fps.mp4':\n  Metadata:\n    major_brand     : isom\n    minor_version   : 512\n    compatible_brands: isomiso2avc1mp41\n    encoder         : Lavf54.28.101\n  Duration: 00:00:05.00, start: 0.000000, bitrate: 623787 kb/s\n  Stream #0:0[0x1](und): Video: h264 (High 4:4:4 Predictive) (avc1 / 0x31637661), yuv420p(progressive), 1920x1080, 623782 kb/s, 60 fps, 60 tbr, 60 tbn (default)\n    Metadata:\n      handler_name    : VideoHandler\n      vendor_id       : [0][0][0][0]\n[out#0/webm @ 0000018e9b319040] Codec AVOption b:a (set bitrate (in bits/s)) has not been used for any stream. The most likely reason is either wrong type (e.g. a video option with no video streams) or that it is a private option of some decoder which was not actually used for any stream.\nStream mapping:\n  Stream #0:0 -> #0:0 (h264 (native) -> vp9 (libvpx-vp9))\nPress [q] to stop, [?] for help\n[libvpx-vp9 @ 0000018e9bdf0640] v1.15.2-100-g40561f514\nOutput #0, webm, to 'C:\\Users\\Peter\\Desktop\\stuff\\MIUN\\quantitative_research\\video_compression\\compressed_videos\\BVI-HD\\vp9\\1.5\\CalmingWater_1920x1080_60fps_vp9.webm':\n  Metadata:\n    major_brand     : isom\n    minor_version   : 512\n    compatible_brands: isomiso2avc1mp41\n    encoder         : Lavf62.3.100\n  Stream #0:0(und): Video: vp9, yuv420p(tv, progressive), 1920x1080, q=2-31, 1500 kb/s, 60 fps, 1k tbn (default)\n    Metadata:\n      encoder         : Lavc62.11.100 libvpx-vp9\n      handler_name    : VideoHandler\n      vendor_id       : [0][0][0][0]\n    Side data:\n      cpb: bitrate max/min/avg: 0/0/0 buffer size: 1500000 vbv_delay: N/A\nframe=    0 fps=0.0 q=0.0 size=       0KiB time=N/A bitrate=N/A speed=N/A elapsed=0:00:00.52    \nframe=    3 fps=2.6 q=60.0 size=       1KiB time=00:00:00.05 bitrate= 101.3kbits/s speed=0.0436x elapsed=0:00:01.14    \nframe=    7 fps=4.2 q=63.0 size=       1KiB time=00:00:00.11 bitrate=  43.4kbits/s speed=0.0701x elapsed=0:00:01.66    \nframe=   12 fps=5.5 q=63.0 size=       1KiB time=00:00:00.20 bitrate=  25.3kbits/s speed=0.0908x elapsed=0:00:02.20    \nframe=   15 fps=5.5 q=63.0 size=       1KiB time=00:00:00.25 bitrate=  20.3kbits/s speed=0.0912x elapsed=0:00:02.74    \nframe=   19 fps=5.8 q=63.0 size=       1KiB time=00:00:00.31 bitrate=  16.0kbits/s speed=0.0968x elapsed=0:00:03.27    \nframe=   23 fps=6.0 q=63.0 size=       1KiB time=00:00:00.38 bitrate=  13.2kbits/s speed= 0.1x elapsed=0:00:03.81    \nframe=   26 fps=6.0 q=63.0 size=       1KiB time=00:00:00.43 bitrate=  11.7kbits/s speed=0.0996x elapsed=0:00:04.34    \nframe=   30 fps=6.1 q=63.0 size=       1KiB time=00:00:00.50 bitrate=  10.1kbits/s speed=0.102x elapsed=0:00:04.89    \nframe=   33 fps=6.1 q=63.0 size=       1KiB time=00:00:00.55 bitrate=   9.2kbits/s speed=0.101x elapsed=0:00:05.42    \nframe=   36 fps=6.1 q=63.0 size=       1KiB time=00:00:00.60 bitrate=   8.4kbits/s speed=0.101x elapsed=0:00:05.94    \nframe=   40 fps=6.2 q=63.0 size=       1KiB time=00:00:00.66 bitrate=   7.6kbits/s speed=0.103x elapsed=0:00:06.46    \nframe=   43 fps=6.2 q=56.0 size=       1KiB time=00:00:00.71 bitrate=   7.1kbits/s speed=0.103x elapsed=0:00:06.99    \nframe=   47 fps=6.2 q=63.0 size=       1KiB time=00:00:00.78 bitrate=   6.5kbits/s speed=0.104x elapsed=0:00:07.52    \nframe=   50 fps=6.2 q=63.0 size=       1KiB time=00:00:00.83 bitrate=   6.1kbits/s speed=0.103x elapsed=0:00:08.06    \nframe=   54 fps=6.3 q=63.0 size=       1KiB time=00:00:00.90 bitrate=   5.6kbits/s speed=0.105x elapsed=0:00:08.60    \nframe=   56 fps=6.1 q=63.0 size=       1KiB time=00:00:00.93 bitrate=   5.4kbits/s speed=0.102x elapsed=0:00:09.12    \nframe=   60 fps=6.2 q=63.0 size=       1KiB time=00:00:01.00 bitrate=   5.1kbits/s speed=0.104x elapsed=0:00:09.64    \nframe=   63 fps=6.2 q=63.0 size=       1KiB time=00:00:01.05 bitrate=   4.8kbits/s speed=0.103x elapsed=0:00:10.18    \nframe=   66 fps=6.2 q=63.0 size=       1KiB time=00:00:01.10 bitrate=   4.6kbits/s speed=0.103x elapsed=0:00:10.71    \nframe=   70 fps=6.2 q=63.0 size=       1KiB time=00:00:01.16 bitrate=   4.3kbits/s speed=0.104x elapsed=0:00:11.22    \nframe=   73 fps=6.2 q=56.0 size=       1KiB time=00:00:01.21 bitrate=   4.2kbits/s speed=0.103x elapsed=0:00:11.77    \nframe=   77 fps=6.3 q=63.0 size=       1KiB time=00:00:01.28 bitrate=   3.9kbits/s speed=0.104x elapsed=0:00:12.29    \nframe=   80 fps=6.2 q=63.0 size=       1KiB time=00:00:01.33 bitrate=   3.8kbits/s speed=0.104x elapsed=0:00:12.83    \nframe=   83 fps=6.2 q=63.0 size=       1KiB time=00:00:01.38 bitrate=   3.7kbits/s speed=0.104x elapsed=0:00:13.35    \nframe=   86 fps=6.2 q=63.0 size=       1KiB time=00:00:01.43 bitrate=   3.5kbits/s speed=0.103x elapsed=0:00:13.87    \nframe=   90 fps=6.3 q=63.0 size=       1KiB time=00:00:01.50 bitrate=   3.4kbits/s speed=0.104x elapsed=0:00:14.39    \nframe=   93 fps=6.2 q=63.0 size=       1KiB time=00:00:01.55 bitrate=   3.3kbits/s speed=0.104x elapsed=0:00:14.95    \nframe=   96 fps=6.2 q=63.0 size=       1KiB time=00:00:01.60 bitrate=   3.2kbits/s speed=0.103x elapsed=0:00:15.49    \nframe=  100 fps=6.2 q=63.0 size=       1KiB time=00:00:01.66 bitrate=   3.0kbits/s speed=0.104x elapsed=0:00:16.04    \nframe=  103 fps=6.2 q=56.0 size=       1KiB time=00:00:01.71 bitrate=   2.9kbits/s speed=0.103x elapsed=0:00:16.59    \nframe=  107 fps=6.2 q=63.0 size=       1KiB time=00:00:01.78 bitrate=   2.8kbits/s speed=0.104x elapsed=0:00:17.12    \nframe=  110 fps=6.2 q=63.0 size=       1KiB time=00:00:01.83 bitrate=   2.8kbits/s speed=0.104x elapsed=0:00:17.67    \nframe=  114 fps=6.3 q=63.0 size=       1KiB time=00:00:01.90 bitrate=   2.7kbits/s speed=0.104x elapsed=0:00:18.22    \nframe=  117 fps=6.2 q=63.0 size=       1KiB time=00:00:01.95 bitrate=   2.6kbits/s speed=0.104x elapsed=0:00:18.76    \nframe=  120 fps=6.2 q=63.0 size=       1KiB time=00:00:02.00 bitrate=   2.5kbits/s speed=0.104x elapsed=0:00:19.27    \nframe=  124 fps=6.3 q=63.0 size=       1KiB time=00:00:02.06 bitrate=   2.5kbits/s speed=0.104x elapsed=0:00:19.79    \nframe=  128 fps=6.3 q=63.0 size=       1KiB time=00:00:02.13 bitrate=   2.4kbits/s speed=0.105x elapsed=0:00:20.33    \nframe=  132 fps=6.3 q=63.0 size=     768KiB time=00:00:02.20 bitrate=2859.8kbits/s speed=0.106x elapsed=0:00:20.84    \nframe=  136 fps=6.4 q=63.0 size=     768KiB time=00:00:02.26 bitrate=2775.6kbits/s speed=0.106x elapsed=0:00:21.39    \nframe=  140 fps=6.4 q=63.0 size=     768KiB time=00:00:02.33 bitrate=2696.3kbits/s speed=0.106x elapsed=0:00:21.91    \nframe=  144 fps=6.4 q=63.0 size=     768KiB time=00:00:02.38 bitrate=2639.8kbits/s speed=0.106x elapsed=0:00:22.44    \nframe=  147 fps=6.4 q=63.0 size=     768KiB time=00:00:02.45 bitrate=2567.9kbits/s speed=0.107x elapsed=0:00:22.98    \nframe=  151 fps=6.4 q=63.0 size=     768KiB time=00:00:02.51 bitrate=2499.9kbits/s speed=0.107x elapsed=0:00:23.50    \nframe=  154 fps=6.4 q=63.0 size=     768KiB time=00:00:02.56 bitrate=2451.2kbits/s speed=0.107x elapsed=0:00:24.02    \nframe=  157 fps=6.4 q=63.0 size=     768KiB time=00:00:02.61 bitrate=2404.4kbits/s speed=0.107x elapsed=0:00:24.55    \nframe=  161 fps=6.4 q=63.0 size=     768KiB time=00:00:02.68 bitrate=2344.6kbits/s speed=0.107x elapsed=0:00:25.07    \nframe=  164 fps=6.4 q=56.0 size=     768KiB time=00:00:02.73 bitrate=2301.8kbits/s speed=0.107x elapsed=0:00:25.60    \nframe=  168 fps=6.4 q=63.0 size=     768KiB time=00:00:02.80 bitrate=2246.9kbits/s speed=0.107x elapsed=0:00:26.11    \nframe=  171 fps=6.4 q=63.0 size=     768KiB time=00:00:02.85 bitrate=2207.5kbits/s speed=0.107x elapsed=0:00:26.63    \nframe=  175 fps=6.4 q=63.0 size=     768KiB time=00:00:02.91 bitrate=2157.1kbits/s speed=0.107x elapsed=0:00:27.15    \nframe=  180 fps=6.5 q=63.0 size=     768KiB time=00:00:03.00 bitrate=2097.2kbits/s speed=0.108x elapsed=0:00:27.67    \nframe=  183 fps=6.5 q=63.0 size=     768KiB time=00:00:03.05 bitrate=2062.8kbits/s speed=0.108x elapsed=0:00:28.20    \nframe=  187 fps=6.5 q=63.0 size=     768KiB time=00:00:03.11 bitrate=2018.6kbits/s speed=0.108x elapsed=0:00:28.74    \nframe=  191 fps=6.5 q=63.0 size=     768KiB time=00:00:03.18 bitrate=1976.4kbits/s speed=0.109x elapsed=0:00:29.27    \nframe=  195 fps=6.5 q=63.0 size=     768KiB time=00:00:03.25 bitrate=1935.8kbits/s speed=0.109x elapsed=0:00:29.81    \nframe=  199 fps=6.6 q=63.0 size=     768KiB time=00:00:03.31 bitrate=1896.9kbits/s speed=0.109x elapsed=0:00:30.34    \nframe=  203 fps=6.6 q=63.0 size=     768KiB time=00:00:03.38 bitrate=1859.5kbits/s speed=0.11x elapsed=0:00:30.88    \nframe=  206 fps=6.6 q=56.0 size=     768KiB time=00:00:03.43 bitrate=1832.5kbits/s speed=0.109x elapsed=0:00:31.41    \nframe=  210 fps=6.6 q=63.0 size=     768KiB time=00:00:03.50 bitrate=1797.6kbits/s speed=0.11x elapsed=0:00:31.93    \nframe=  214 fps=6.6 q=63.0 size=     768KiB time=00:00:03.56 bitrate=1764.0kbits/s speed=0.11x elapsed=0:00:32.45    \nframe=  218 fps=6.6 q=56.0 size=     768KiB time=00:00:03.61 bitrate=1739.6kbits/s speed=0.11x elapsed=0:00:32.97    \nframe=  222 fps=6.6 q=63.0 size=     768KiB time=00:00:03.70 bitrate=1700.4kbits/s speed=0.11x elapsed=0:00:33.53    \nframe=  226 fps=6.6 q=63.0 size=     768KiB time=00:00:03.76 bitrate=1670.3kbits/s speed=0.111x elapsed=0:00:34.04    \nframe=  229 fps=6.6 q=63.0 size=     768KiB time=00:00:03.81 bitrate=1648.4kbits/s speed=0.11x elapsed=0:00:34.56    \nframe=  234 fps=6.7 q=63.0 size=     768KiB time=00:00:03.90 bitrate=1613.2kbits/s speed=0.111x elapsed=0:00:35.08    \nframe=  238 fps=6.7 q=63.0 size=     768KiB time=00:00:03.96 bitrate=1586.1kbits/s speed=0.111x elapsed=0:00:35.64    \nframe=  241 fps=6.7 q=63.0 size=     768KiB time=00:00:04.01 bitrate=1566.3kbits/s speed=0.111x elapsed=0:00:36.16    \nframe=  246 fps=6.7 q=63.0 size=     768KiB time=00:00:04.10 bitrate=1534.5kbits/s speed=0.112x elapsed=0:00:36.67    \nframe=  249 fps=6.7 q=56.0 size=     768KiB time=00:00:04.15 bitrate=1516.0kbits/s speed=0.111x elapsed=0:00:37.22    \nframe=  253 fps=6.7 q=63.0 size=     768KiB time=00:00:04.21 bitrate=1492.0kbits/s speed=0.112x elapsed=0:00:37.74    \nframe=  256 fps=6.7 q=63.0 size=     768KiB time=00:00:04.26 bitrate=1474.6kbits/s speed=0.111x elapsed=0:00:38.27    \nframe=  261 fps=6.7 q=63.0 size=    1280KiB time=00:00:04.35 bitrate=2410.5kbits/s speed=0.112x elapsed=0:00:38.80    \nframe=  266 fps=6.8 q=63.0 size=    1280KiB time=00:00:04.43 bitrate=2365.2kbits/s speed=0.113x elapsed=0:00:39.34    \nframe=  270 fps=6.8 q=63.0 size=    1280KiB time=00:00:04.50 bitrate=2330.2kbits/s speed=0.113x elapsed=0:00:39.86    \nframe=  275 fps=6.8 q=63.0 size=    1280KiB time=00:00:04.58 bitrate=2287.8kbits/s speed=0.113x elapsed=0:00:40.39    \nframe=  276 fps=6.7 q=63.0 size=    1280KiB time=00:00:04.60 bitrate=2279.5kbits/s speed=0.112x elapsed=0:00:40.92    \nframe=  276 fps=6.7 q=63.0 size=    1280KiB time=00:00:04.60 bitrate=2279.5kbits/s speed=0.111x elapsed=0:00:41.46    \nframe=  276 fps=6.6 q=63.0 size=    1280KiB time=00:00:04.60 bitrate=2279.5kbits/s speed=0.11x elapsed=0:00:41.99    \nframe=  276 fps=6.5 q=63.0 size=    1280KiB time=00:00:04.60 bitrate=2279.5kbits/s speed=0.108x elapsed=0:00:42.50    \nframe=  276 fps=6.4 q=63.0 size=    1280KiB time=00:00:04.60 bitrate=2279.5kbits/s speed=0.107x elapsed=0:00:43.03    \n[out#0/webm @ 0000018e9b319040] video:1692KiB audio:0KiB subtitle:0KiB other streams:0KiB global headers:0KiB muxing overhead: 0.163196%\nframe=  300 fps=6.9 q=63.0 Lsize=    1695KiB time=00:00:05.00 bitrate=2777.1kbits/s speed=0.115x elapsed=0:00:43.29    \n",
  "seconds": 43.56947565078735,
  "probe_out": {}
}